# xmcd
#
# Track frame offsets:
#  150
#  12919
#  28500
#  47450
#  58152
#  70809
#  83501
#  99231
#  114219
#  128267
#  142103
#  151461
#  170493
#
# Disc length: 2511 seconds
#
# Revision: 0
# Processed by: cddbd v1.5.2PL0 Copyright (c) Steve Scherf et al.
# Submitted via: AltoMP3_Maker 3.0
#
DISCID=9809cd0d
DTITLE=Tony Hunt - The Vices in the Verses
DYEAR=1900
DGENRE=
TTITLE0=Good Time Charlie's Got The Blues
TTITLE1=Me and Bobby McGee
TTITLE2=Margaritaville
TTITLE3=King of the Road
TTITLE4=Pencil Thin Moustache
TTITLE5=Folsom Prison Blues
TTITLE6=Mr Bojangles
TTITLE7=Changes in Latitudes Changes in Attitudes
TTITLE8=Marina Del Ray
TTITLE9=Lone Star State of Mind
TTITLE10=Ace in the Hole
TTITLE11=Old Dogs Children and Watermelon Wine
TTITLE12=Rainy Night in Georgia
EXTD=
EXTT0=
EXTT1=
EXTT2=
EXTT3=
EXTT4=
EXTT5=
EXTT6=
EXTT7=
EXTT8=
EXTT9=
EXTT10=
EXTT11=
EXTT12=
PLAYORDER=
